<?xml version="1.0" encoding="utf-8"?>
<!-- Generator: Adobe Illustrator 27.5.0, SVG Export Plug-In . SVG Version: 6.00 Build 0)  -->
<svg version="1.1" xmlns="http://www.w3.org/2000/svg" xmlns:xlink="http://www.w3.org/1999/xlink" x="0px" y="0px"
	 viewBox="0 0 750 500" style="enable-background:new 0 0 750 500;" xml:space="preserve">
<g id="BACKGROUND">
	<rect style="fill:#07689F;" width="750" height="500"/>
</g>
<g id="OBJECTS">
	<g>
		<g>
			<g>
				<rect x="96.116" y="394.316" style="fill:#053F59;" width="16.254" height="105.684"/>
				<rect x="96.116" y="394.492" style="fill:#042E3D;" width="16.254" height="20.775"/>
			</g>
			<g>
				<rect x="652.106" y="394.316" style="fill:#053F59;" width="16.254" height="105.684"/>
				<rect x="652.106" y="394.492" style="fill:#042E3D;" width="16.254" height="20.775"/>
			</g>
		</g>
		<rect x="59.108" y="374.879" style="fill:#A2D5F2;" width="649.123" height="22.03"/>
	</g>
	<g>
		<g>
			<path style="fill:#053F59;" d="M182.36,500.091c0,0-124.971-151.876-69.655-225.451s170.719-11.466,192.655,163.395L296.976,500
				L182.36,500.091z"/>
			<path style="fill:#042E3D;" d="M205.115,500c0,0-122.459-143.651-70.988-213.802s158.85-10.933,179.261,155.789L306.068,500
				H205.115z"/>
		</g>
		<g>
			<g>
				<path style="fill:#07689F;" d="M452.327,500c-24.639-122.928-147.724-122.546-147.724-122.546l-88.513,12.07l-9.388,48.95
					c0.456,25.343,5.906,45.508,14.621,61.526H452.327z"/>
				<path style="opacity:0.3;fill:#042E3D;" d="M304.603,377.454l-88.513,12.07l-7.333,38.236
					c19.678-3.029,68.171-20.07,104.602-51.704c13.2,14.542,32.895,39.507,35,76c0,0,35,22.89,55,47.945h48.967
					C427.688,377.072,304.603,377.454,304.603,377.454z"/>
			</g>
			<g>
				<g>
					<path style="fill:#FFB39C;" d="M175.858,219.204l-27.157,5.029c0,0,39.227,64.373,15.087,64.373
						c-15.087,0-30.175-12.07-32.186,19.111c-2.012,31.181,60.349,73.425,60.349,73.425s108.629-38.221,64.373-92.536
						c-22.128-27.157-38.221,26.151-57.332-36.21C179.881,190.036,175.858,219.204,175.858,219.204z"/>
					<path style="opacity:0.5;fill:#D67765;" d="M193.852,279.788c6.663,1.661,13.562,3.167,20.272,1.778
						c-4.942-3.784-9.925-12.177-15.132-29.169c-19.111-62.361-23.134-33.192-23.134-33.192l-27.157,5.029
						c0,0,15.931,26.146,21.239,45.112C177.233,274.132,185.359,277.67,193.852,279.788z"/>
				</g>
				<g>
					<g>
						<g>
							<path style="fill:#053F59;" d="M228.796,149.162c0,0,12.74-15.423,22.799,2.682c10.058,18.105-4.023,16.093,14.752,36.21
								c18.775,20.116-18.105,46.268-18.105,46.268L228.796,149.162z"/>
							<path style="fill:#042E3D;" d="M266.347,188.054c-1.23-1.318-2.312-2.536-3.276-3.676
								c-2.436,6.737-6.145,13.023-10.201,17.808c-2.948,3.478-6.459,5.776-10.301,7.287l5.674,24.849
								C248.242,234.322,285.122,208.17,266.347,188.054z"/>
						</g>
						<g>
							<path style="fill:#053F59;" d="M275.064,215.546c1.251-1.942,2.087-4.118,2.756-6.312c0.661-2.199,1.097-4.47,1.207-6.753
								c0.127-2.282-0.076-4.576-0.657-6.768c-0.559-2.198-1.532-4.274-2.819-6.123c-1.281-1.855-2.859-3.499-4.629-4.904
								c-1.756-1.432-3.734-2.536-5.745-3.702c-2.008-1.226-3.947-2.599-5.623-4.326c-0.809-0.89-1.586-1.831-2.177-2.913
								c-0.591-1.076-1.027-2.248-1.27-3.454c-0.489-2.429-0.229-4.838-0.036-7.128c0.208-2.294,0.394-4.539,0.158-6.743
								c-0.23-2.2-0.829-4.345-1.807-6.339c-0.977-2.005-2.197-3.862-3.68-5.568c-1.432-1.604-3.169-3.063-5.159-3.692
								c-1.974-0.704-4.145-0.512-6.131,0.264c-2.001,0.772-3.817,2.093-5.458,3.584c-1.629,1.498-3.128,3.246-4.36,5.041
								l-2.566,3.741l0.735-4.423c0.417-2.508,1.254-4.766,2.401-6.949c1.154-2.158,2.682-4.154,4.586-5.748
								c1.889-1.613,4.155-2.762,6.523-3.444c2.377-0.673,4.847-0.851,7.263-0.73c1.211,0.051,2.41,0.206,3.596,0.399
								c0.606,0.118,1.147,0.2,1.806,0.349l1.7,0.447c2.389,0.736,4.604,1.871,6.504,3.469c1.905,1.586,3.379,3.615,4.514,5.75
								c1.124,2.151,1.929,4.418,2.615,6.678c0.693,2.258,1.269,4.532,2.036,6.693c0.772,2.125,1.76,4.275,3.553,5.407
								c0.876,0.569,1.921,0.878,3.017,0.891c0.54,0.068,1.1-0.037,1.653-0.063c0.554-0.07,1.107-0.205,1.662-0.302l1.645-0.477
								l1.627-0.605c0.531-0.221,1.029-0.473,1.546-0.706c0.503-0.262,0.991-0.561,1.491-0.836c1.925-1.21,3.607-2.821,4.762-4.786
								c0.573-0.985,1.001-2.049,1.33-3.147c0.295-1.108,0.477-2.248,0.557-3.401c0.124-2.309-0.15-4.642-0.698-6.907
								c-0.536-2.269-1.309-4.493-2.336-6.599c1.119,2.06,1.992,4.257,2.633,6.523c0.631,2.268,0.986,4.628,0.937,7.007
								c-0.044,1.188-0.193,2.375-0.464,3.543c-0.306,1.158-0.72,2.293-1.293,3.356c-1.155,2.122-2.895,3.902-4.891,5.246
								c-0.515,0.311-1.026,0.628-1.554,0.919c-0.544,0.261-1.09,0.546-1.636,0.785l-1.656,0.652l-1.721,0.536
								c-0.595,0.119-1.182,0.273-1.788,0.362c-0.615,0.045-1.22,0.167-1.852,0.108c-1.244,0.009-2.551-0.329-3.649-1.014
								c-1.104-0.678-1.984-1.658-2.634-2.71c-0.641-1.059-1.149-2.168-1.571-3.289c-0.845-2.242-1.465-4.508-2.191-6.715
								c-0.717-2.208-1.536-4.361-2.625-6.346c-1.076-1.983-2.424-3.809-4.141-5.217c-1.698-1.417-3.746-2.437-5.835-3.072
								l-1.703-0.436c-0.484-0.104-1.103-0.202-1.647-0.304c-1.126-0.175-2.257-0.315-3.388-0.354
								c-2.258-0.098-4.524,0.086-6.658,0.706c-2.126,0.631-4.124,1.66-5.795,3.106c-1.685,1.428-3.049,3.228-4.09,5.204
								c-1.034,1.96-1.793,4.175-2.157,6.288l-1.831-0.682c1.394-2.003,2.939-3.767,4.715-5.389
								c1.779-1.591,3.766-3.037,6.092-3.923c2.295-0.893,5.013-1.125,7.415-0.248c2.436,0.811,4.349,2.465,5.958,4.289
								c1.532,1.787,2.866,3.827,3.891,5.981c1.043,2.162,1.692,4.533,1.924,6.928c0.232,2.399,0.04,4.787-0.222,7.08
								c-0.244,2.288-0.511,4.542-0.12,6.675c0.194,1.063,0.551,2.082,1.051,3.041c0.498,0.962,1.185,1.826,1.909,2.659
								c1.513,1.624,3.346,2.984,5.25,4.199c1.957,1.187,4.008,2.384,5.809,3.913c1.811,1.503,3.446,3.247,4.73,5.234
								c1.287,1.982,2.232,4.187,2.738,6.485c0.528,2.294,0.658,4.659,0.454,6.983c-0.189,2.326-0.701,4.614-1.447,6.809
								C277.336,211.509,276.4,213.657,275.064,215.546z"/>
							<path style="fill:#053F59;" d="M277.746,92.836c1.248,3.767,2.093,7.687,2.331,11.683c0.116,1.996,0.04,4.022-0.379,6.013
								c-0.19,1-0.543,1.971-0.961,2.916c-0.494,0.906-1.029,1.832-1.829,2.537c-1.512,1.518-3.654,2.227-5.701,2.399
								c-2.07,0.183-4.125-0.079-6.092-0.551l-2.903-0.676c-0.948-0.189-1.897-0.371-2.866-0.495
								c-1.929-0.259-3.873-0.376-5.807-0.318c-3.86,0.143-7.7,0.971-11.098,2.719c-3.397,1.734-6.293,4.393-8.302,7.64
								c-1.016,1.615-1.836,3.355-2.493,5.159c-0.63,1.816-1.086,3.694-1.426,5.597c-0.277,1.914-0.513,3.842-0.537,5.789
								c-0.067,1.943-0.01,3.893,0.098,5.843l-1.969,0.173l-0.385-2.6l-0.191-1.301l-0.316-1.271
								c-0.222-0.844-0.407-1.701-0.657-2.536l-0.904-2.451l-0.225-0.614l-0.29-0.584l-0.584-1.165l-0.583-1.167
								c-0.225-0.371-0.472-0.728-0.706-1.094c-0.888-1.498-2.024-2.818-3.161-4.129l-1.872-1.816
								c-0.655-0.572-1.362-1.085-2.04-1.631c-0.664-0.568-1.452-0.967-2.172-1.46c-0.719-0.499-1.505-0.889-2.283-1.292
								l-1.165-0.609c-0.396-0.188-0.808-0.344-1.208-0.524c-0.811-0.337-1.598-0.734-2.441-0.997
								c-0.835-0.282-1.657-0.603-2.503-0.855l-2.554-0.714c-1.725-0.395-3.455-0.785-5.214-1.042
								c-0.874-0.16-1.756-0.266-2.64-0.365c-0.883-0.106-1.765-0.218-2.655-0.271c-1.773-0.161-3.555-0.227-5.337-0.285
								l-2.676-0.019l-2.678,0.044c-3.572,0.092-7.143,0.357-10.7,0.772c-3.554,0.431-7.102,0.966-10.613,1.709
								c3.465-0.941,6.992-1.657,10.544-2.215c3.552-0.559,7.131-0.97,10.728-1.206c1.798-0.125,3.602-0.162,5.406-0.183
								c1.804,0.014,3.611,0.037,5.415,0.157c0.904,0.033,1.804,0.123,2.705,0.21c0.902,0.079,1.803,0.165,2.699,0.306
								c1.8,0.218,3.581,0.573,5.362,0.936l2.647,0.671c0.879,0.238,1.739,0.549,2.61,0.821c0.878,0.252,1.71,0.644,2.563,0.975
								c0.423,0.174,0.85,0.341,1.266,0.532l1.226,0.626c0.818,0.416,1.644,0.819,2.407,1.337c0.764,0.512,1.592,0.929,2.303,1.522
								c0.724,0.571,1.475,1.11,2.175,1.712l2.007,1.915c1.225,1.384,2.444,2.786,3.406,4.373c0.253,0.387,0.518,0.768,0.76,1.162
								l0.632,1.234l0.631,1.236l0.312,0.619l0.245,0.647l0.978,2.591c0.271,0.879,0.476,1.777,0.716,2.666l0.342,1.337l0.213,1.359
								l0.423,2.721l-1.969,0.173c-0.121-2.011-0.224-4.03-0.123-6.053c0.043-2.023,0.302-4.042,0.611-6.049
								c0.373-2,0.87-3.983,1.558-5.912c0.715-1.919,1.609-3.779,2.72-5.513c1.109-1.734,2.435-3.342,3.974-4.723
								c1.532-1.387,3.253-2.561,5.093-3.486c3.685-1.856,7.8-2.724,11.862-2.747c2.034-0.012,4.059,0.16,6.054,0.478
								c0.997,0.152,1.991,0.367,2.984,0.592l2.877,0.744c1.872,0.5,3.804,0.786,5.694,0.663c1.877-0.116,3.75-0.692,5.098-1.983
								c0.717-0.594,1.231-1.396,1.715-2.204c0.415-0.852,0.785-1.742,1.002-2.687c0.475-1.876,0.632-3.848,0.595-5.813
								c-0.034-1.968-0.237-3.937-0.544-5.891C278.673,96.693,278.279,94.747,277.746,92.836z"/>
						</g>
					</g>
					<g>
						<path style="fill:#042E3D;" d="M130.896,147.821c0,0,4.023-38.221-23.469-48.95c0,0,12.451,6.791,17.075,19.334
							c0.409,1.11,0.757,2.265,1.03,3.464c0,0-18.105-33.528-51.632-22.128c-33.527,11.399-1.05,42.99-19.826,42.99
							c-18.775,0-4.985-15.497-4.985-15.497s-16.656,16.346,4.023,18.105c21.38,1.819,16.093-23.469,16.093-23.469
							s-10.57,24.806,8.205,34.864c0,0-7.535-5.36-3.512-12.065c0,0,5.364,20.787,25.481,16.093
							c20.117-4.694,19.446-24.14,28.834-2.682C137.602,179.337,130.896,147.821,130.896,147.821z"/>
						<path style="fill:#042E3D;" d="M126.844,125.346c0,0-0.663-1.839-2.303-4.809c-0.405-0.745-0.866-1.561-1.422-2.417
							c-0.521-0.877-1.154-1.78-1.841-2.735c-0.649-0.982-1.486-1.919-2.297-2.953c-0.84-1.012-1.802-2.009-2.771-3.073
							c-2.078-1.993-4.394-4.095-7.153-5.886c-0.685-0.452-1.38-0.91-2.083-1.374c-0.744-0.394-1.498-0.792-2.259-1.195
							c-1.488-0.873-3.15-1.468-4.797-2.161c-0.416-0.161-0.82-0.362-1.251-0.492l-1.303-0.381c-0.871-0.255-1.748-0.512-2.63-0.771
							c-0.436-0.147-0.889-0.238-1.347-0.31l-1.37-0.247c-0.914-0.171-1.833-0.342-2.756-0.514
							c-0.872-0.142-1.885-0.208-2.826-0.316c-0.938-0.049-1.858-0.085-2.795-0.104c-1.88,0.041-3.774,0.129-5.618,0.494
							c-3.706,0.607-7.26,2.026-10.272,4.136c-3.02,2.101-5.509,4.854-7.338,7.876c-1.831,3.024-3.09,6.271-3.762,9.457
							c-0.341,1.591-0.536,3.169-0.577,4.691c-0.039,1.517,0.083,3.001,0.489,4.296c0.224,0.694,0.444,1.373,0.658,2.037
							c0.119,0.739,0.322,1.459,0.292,2.157c0.085,1.394-0.203,2.724-0.669,3.864c-0.927,2.322-2.745,3.773-4.375,4.374
							c-0.415,0.138-0.824,0.227-1.203,0.304c-0.39,0.014-0.754,0.061-1.09,0.036c-0.333-0.047-0.642-0.09-0.925-0.129
							c-0.268-0.093-0.512-0.178-0.731-0.254c-0.443-0.129-0.714-0.383-0.927-0.479c-0.203-0.119-0.307-0.181-0.307-0.181
							s0.11,0.053,0.321,0.157c0.221,0.08,0.503,0.308,0.95,0.4c0.835,0.314,2.244,0.422,3.769-0.219
							c1.496-0.655,3.098-2.105,3.818-4.276c0.364-1.065,0.556-2.28,0.402-3.537c-0.012-0.64-0.219-1.239-0.334-1.873
							c-0.242-0.654-0.49-1.324-0.743-2.007c-1.01-2.959-0.881-6.288-0.292-9.65c0.606-3.37,1.812-6.833,3.714-10.075
							c0.933-1.629,2.069-3.183,3.359-4.632c1.287-1.451,2.745-2.799,4.384-3.926c3.24-2.301,7.083-3.86,11.041-4.527
							c1.977-0.377,3.985-0.46,5.972-0.489c0.997,0.024,2.01,0.072,2.994,0.132c0.972,0.118,1.881,0.177,2.896,0.342
							c1.909,0.393,3.829,0.676,5.669,1.185c0.913,0.285,1.82,0.569,2.72,0.85c0.45,0.141,0.898,0.281,1.345,0.421
							c0.445,0.144,0.863,0.359,1.292,0.534c1.698,0.754,3.416,1.392,4.933,2.351c0.776,0.441,1.544,0.878,2.302,1.309
							c0.714,0.501,1.418,0.997,2.114,1.485c2.804,1.926,5.099,4.195,7.134,6.324c0.944,1.134,1.895,2.182,2.689,3.264
							c0.767,1.103,1.558,2.1,2.16,3.135c0.64,1.008,1.226,1.957,1.701,2.874c0.511,0.896,0.928,1.745,1.292,2.519
							c0.75,1.535,1.206,2.801,1.522,3.656C126.713,124.878,126.844,125.346,126.844,125.346z"/>
						<path style="fill:#042E3D;" d="M120.904,92.886c-0.883,0.967-1.55,2.123-1.947,3.344c-0.401,1.219-0.447,2.542-0.057,3.734
							c0.087,0.302,0.176,0.601,0.348,0.87c0.156,0.273,0.282,0.561,0.457,0.82c0.412,0.481,0.738,1.023,1.245,1.421l0.701,0.64
							c0.237,0.209,0.52,0.37,0.776,0.557c0.521,0.368,1.041,0.734,1.625,1.012l1.72,0.928c0.576,0.286,1.153,0.659,1.732,1.054
							c1.105,0.802,2.107,1.727,2.999,2.754c1.764,2.072,3.045,4.501,3.957,7.033c1.816,5.084,2.212,10.579,1.527,15.902
							c-0.158,1.336-0.434,2.656-0.752,3.965c-0.351,1.301-0.734,2.598-1.244,3.852c-0.485,1.263-1.075,2.488-1.743,3.673
							c-0.659,1.191-1.453,2.308-2.295,3.386l0.217-0.497l-0.858,6.151l-0.338,2.425l-1.454-1.987
							c-0.671-0.917-1.47-1.843-2.304-2.648c-0.84-0.805-1.754-1.535-2.716-2.004c-0.969-0.467-1.926-0.583-2.692-0.166
							c-0.392,0.205-0.752,0.545-1.075,0.949c-0.326,0.427-0.569,0.868-0.864,1.442c-1.118,2.182-2.272,4.425-3.652,6.536
							c-1.393,2.102-3.011,4.096-4.951,5.764c-0.956,0.848-2.02,1.576-3.124,2.222c-1.104,0.655-2.305,1.125-3.512,1.537
							c-1.227,0.35-2.472,0.654-3.739,0.753c-1.261,0.146-2.529,0.124-3.785,0.045l-1.87-0.221l-1.843-0.35l-1.813-0.462
							l-1.778-0.565c-1.168-0.423-2.335-0.844-3.457-1.372c-1.139-0.486-2.224-1.085-3.327-1.638
							c1.143,0.469,2.265,0.981,3.433,1.378c1.148,0.445,2.324,0.808,3.498,1.156l1.78,0.456l1.799,0.352l1.811,0.239l1.816,0.111
							c1.21,0,2.418-0.028,3.604-0.213c1.193-0.14,2.347-0.477,3.476-0.847c1.109-0.43,2.198-0.913,3.2-1.554
							c1.004-0.63,1.97-1.329,2.837-2.147c1.763-1.604,3.226-3.528,4.507-5.566c1.287-2.047,2.359-4.219,3.451-6.448
							c0.537-1.103,1.278-2.458,2.679-3.236c0.692-0.389,1.534-0.557,2.306-0.494c0.776,0.056,1.483,0.29,2.118,0.587
							c1.264,0.611,2.297,1.451,3.242,2.34c0.944,0.906,1.772,1.848,2.565,2.917l-1.792,0.438l0.839-6.154l0.038-0.277l0.179-0.221
							c3.167-3.895,4.98-8.84,5.72-13.869c0.748-5.041,0.427-10.286-1.124-15.139c-0.384-1.215-0.893-2.382-1.456-3.518
							c-0.588-1.124-1.27-2.192-2.038-3.195c-0.788-0.985-1.687-1.883-2.671-2.661l-0.75-0.543c-0.256-0.18-0.556-0.338-0.832-0.508
							l-1.694-1.019c-0.585-0.322-1.117-0.74-1.644-1.158c-0.26-0.213-0.541-0.397-0.783-0.634l-0.711-0.726
							c-0.507-0.449-0.844-1.063-1.249-1.602c-0.174-0.291-0.299-0.615-0.449-0.92c-0.166-0.3-0.248-0.633-0.325-0.967
							c-0.349-1.321-0.217-2.738,0.28-3.974C119.185,94.896,119.95,93.785,120.904,92.886z"/>
						<path style="fill:#042E3D;" d="M81.442,169.687c0,0,1.027,0.651,2.946,1.512c1.907,0.861,4.765,1.899,8.281,2.285
							c1.754,0.181,3.67,0.158,5.626-0.201c1.956-0.361,3.932-1.108,5.777-2.223c1.851-1.113,3.521-2.64,5.014-4.371
							c1.481-1.743,2.819-3.683,3.899-5.781c0.607-1.008,1.052-2.113,1.586-3.161c0.459-1.094,0.91-2.161,1.351-3.271
							c0.853-2.225,1.797-4.401,2.787-6.467c1.009-2.065,2.041-4.041,3.519-5.741c0.383-0.417,0.802-0.826,1.392-1.134
							c0.302-0.146,0.66-0.264,1.067-0.255c0.412,0.018,0.796,0.196,1.069,0.416c0.538,0.456,0.778,0.973,0.979,1.45
							c0.195,0.483,0.326,0.955,0.431,1.416c0.413,1.842,0.483,3.52,0.534,5.003c0.041,1.483,0.02,2.771-0.01,3.831
							c-0.073,2.12-0.208,3.323-0.208,3.323s-0.044-1.211-0.184-3.317c-0.068-1.053-0.168-2.33-0.345-3.782
							c-0.189-1.445-0.422-3.091-0.903-4.764c-0.124-0.415-0.272-0.827-0.457-1.207c-0.178-0.378-0.422-0.728-0.653-0.885
							c-0.226-0.137-0.334-0.128-0.657,0.032c-0.299,0.173-0.628,0.493-0.922,0.856c-1.187,1.499-2.122,3.486-3.045,5.502
							c-0.92,2.039-1.732,4.203-2.58,6.417c-0.426,1.104-0.895,2.249-1.357,3.377c-0.546,1.101-0.995,2.25-1.627,3.318
							c-1.154,2.186-2.592,4.239-4.204,6.098c-1.616,1.858-3.52,3.444-5.582,4.618c-2.058,1.186-4.292,1.886-6.431,2.176
							c-2.145,0.302-4.195,0.181-6.023-0.137c-1.834-0.309-3.452-0.84-4.834-1.4c-1.384-0.56-2.539-1.153-3.465-1.677
							c-0.93-0.518-1.611-1.007-2.075-1.334C81.676,169.88,81.442,169.687,81.442,169.687z"/>
						<path style="fill:#042E3D;" d="M58.529,96.068c0,0,0.239-0.16,0.706-0.435c0.466-0.273,1.152-0.678,2.062-1.118
							c0.904-0.454,2.028-0.95,3.334-1.491c1.315-0.513,2.81-1.083,4.493-1.542c1.677-0.477,3.52-0.93,5.506-1.223
							c1.979-0.332,4.097-0.525,6.294-0.555c2.198-0.04,4.476,0.112,6.768,0.439c2.28,0.392,4.594,0.878,6.818,1.66
							c2.242,0.729,4.376,1.743,6.427,2.813c1.017,0.55,1.981,1.176,2.949,1.763c0.92,0.658,1.829,1.308,2.723,1.947
							c0.843,0.702,1.671,1.392,2.482,2.068c0.776,0.714,1.501,1.447,2.224,2.14c0.738,0.679,1.345,1.446,1.983,2.136
							c0.628,0.7,1.228,1.381,1.744,2.084c0.531,0.689,1.04,1.349,1.524,1.976c0.474,0.634,0.862,1.281,1.259,1.863
							c0.782,1.174,1.462,2.193,1.946,3.082c1.007,1.751,1.556,2.761,1.556,2.761s-0.702-0.919-1.882-2.544
							c-0.564-0.83-1.338-1.774-2.222-2.853c-0.853-1.104-1.916-2.262-3.058-3.533c-0.553-0.651-1.188-1.275-1.849-1.914
							c-0.67-0.629-1.288-1.355-2.042-1.974c-0.737-0.637-1.476-1.312-2.26-1.963c-0.806-0.624-1.629-1.261-2.466-1.909
							c-0.878-0.587-1.77-1.184-2.673-1.789c-0.95-0.526-1.883-1.106-2.856-1.629c-1.969-1.001-4.013-1.945-6.152-2.62
							c-2.109-0.767-4.307-1.249-6.478-1.648c-2.185-0.319-4.353-0.576-6.467-0.589c-2.111-0.018-4.161,0.045-6.094,0.271
							c-1.935,0.2-3.756,0.51-5.425,0.856c-3.337,0.711-6.079,1.555-7.95,2.275c-0.936,0.358-1.675,0.64-2.168,0.857
							C58.787,95.94,58.529,96.068,58.529,96.068z"/>
					</g>
					<g>
						<path style="fill:#FFB39C;" d="M200.969,145.139c0,0,20.082-9.14,42.244,29.169c23.469,40.568,18.105,82.478-6.035,95.553
							c-24.14,13.076-74.431-11.064-82.477-37.215S139.613,143.127,200.969,145.139z"/>
						<g>
							<g>
								<path style="fill:#053F59;" d="M220.079,147.821c0,0-14.752-8.046-25.481,17.434c-10.729,25.481,2.012,56.997-38.892,57.667
									c0,0-13.411-18.775-17.434,0.671c-4.023,19.446,21.458,19.446,21.458,19.446s-33.527-0.671-42.245-34.869
									c-8.717-34.198,8.717-75.772,57.667-84.489c48.95-8.717,59.679,24.14,55.656,32.857L220.079,147.821z"/>
								<path style="fill:#042E3D;" d="M155.706,222.922c18.795-0.308,26.26-7.131,29.884-16.886
									c-12.47,0.598-25.89-6.121-34.713-14.229c-15.668-14.397-16.135-35.138-9.621-53.902
									c-22.781,17.259-30.041,45.669-23.771,70.265c5.353,21,20.054,29.349,30.61,32.671c-6.095-2.345-11.903-7.194-9.823-17.249
									C142.296,204.147,155.706,222.922,155.706,222.922z"/>
								<path style="fill:#053F59;" d="M220.079,147.821c0,0-0.367-0.151-1.081-0.335c-0.712-0.188-1.779-0.388-3.14-0.459
									c-1.359-0.077-3.026,0.05-4.826,0.575c-1.784,0.56-3.696,1.521-5.423,3.029c-1.733,1.495-3.318,3.448-4.64,5.737
									c-1.327,2.288-2.414,4.884-3.336,7.64c-0.91,2.763-1.583,5.713-2.192,8.712c-0.591,3.043-1.038,6.112-1.423,9.239
									c-0.825,6.221-1.302,12.548-2.617,18.413c-0.637,2.93-1.509,5.734-2.69,8.252c-1.158,2.525-2.623,4.746-4.233,6.554
									c-1.6,1.822-3.341,3.214-4.957,4.294c-0.788,0.573-1.6,0.992-2.311,1.435c-0.744,0.389-1.424,0.749-2.046,1.054
									c-1.26,0.585-2.268,0.991-2.969,1.236c-0.694,0.259-1.063,0.397-1.063,0.397s0.355-0.173,1.02-0.497
									c0.331-0.166,0.746-0.353,1.218-0.605c0.469-0.255,1.009-0.549,1.613-0.878c0.594-0.345,1.238-0.749,1.94-1.182
									c0.667-0.486,1.431-0.95,2.158-1.565c1.495-1.168,3.068-2.628,4.516-4.434c1.443-1.809,2.718-3.979,3.742-6.415
									c1.034-2.436,1.759-5.155,2.331-8.01c0.58-2.857,0.928-5.87,1.297-8.941c0.349-3.088,0.704-6.224,1.059-9.361
									c0.408-3.131,0.896-6.305,1.512-9.354c0.635-3.084,1.434-6.076,2.426-8.916c1-2.836,2.248-5.493,3.729-7.846
									c1.466-2.361,3.262-4.359,5.195-5.853c1.916-1.528,4.044-2.409,5.958-2.855c1.933-0.417,3.662-0.42,5.047-0.242
									c1.391,0.159,2.442,0.495,3.14,0.743C219.729,147.636,220.079,147.821,220.079,147.821z"/>
								<path style="fill:#042E3D;" d="M164.424,241.698l-0.124-1.407c-0.021-0.472-0.093-0.935-0.175-1.39
									c-0.087-0.457-0.128-0.91-0.232-1.362l-0.315-1.35c-0.097-0.449-0.254-0.887-0.375-1.33
									c-0.127-0.442-0.254-0.882-0.423-1.312c-0.303-0.868-0.633-1.724-0.994-2.568c-0.166-0.427-0.383-0.835-0.572-1.252
									c-0.189-0.418-0.397-0.826-0.606-1.235c-0.208-0.409-0.406-0.822-0.636-1.22c-0.227-0.399-0.435-0.807-0.677-1.197
									c-0.471-0.787-0.952-1.567-1.452-2.333c-0.494-0.762-1.039-1.526-1.572-2.208l-1.868-2.388l2.888,0.799
									c0.588,0.163,1.083,0.326,1.595,0.539c0.508,0.202,0.998,0.436,1.484,0.678c0.488,0.238,0.95,0.523,1.425,0.784
									c0.452,0.3,0.913,0.587,1.355,0.899c0.431,0.33,0.859,0.665,1.273,1.014l1.183,1.119l1.074,1.222
									c0.362,0.403,0.634,0.881,0.949,1.318c0.324,0.434,0.575,0.914,0.823,1.394c0.24,0.483,0.538,0.935,0.706,1.45l0.559,1.507
									c0.162,0.508,0.261,1.036,0.393,1.55c0.125,0.517,0.244,1.032,0.275,1.563l0.154,1.573c0.064,0.52-0.008,1.051-0.006,1.572
									l-0.074,1.559l-0.243-1.539c-0.09-0.508-0.104-1.023-0.255-1.517l-0.37-1.486c-0.096-0.499-0.287-0.971-0.465-1.444
									c-0.179-0.472-0.323-0.954-0.527-1.411l-0.674-1.34c-0.192-0.46-0.504-0.857-0.758-1.281
									c-0.262-0.421-0.523-0.84-0.852-1.212c-0.32-0.377-0.599-0.784-0.943-1.138l-1.026-1.061l-1.12-0.961l-1.189-0.874
									c-0.406-0.276-0.829-0.529-1.242-0.796c-0.436-0.228-0.859-0.482-1.304-0.69c-0.444-0.212-0.89-0.417-1.347-0.59
									c-0.446-0.177-0.929-0.353-1.336-0.471l1.019-1.588c0.609,0.803,1.138,1.577,1.652,2.395c0.52,0.806,0.996,1.638,1.44,2.487
									c0.232,0.419,0.43,0.856,0.646,1.282c0.219,0.425,0.406,0.867,0.602,1.303c0.203,0.433,0.383,0.877,0.545,1.329
									c0.162,0.451,0.352,0.89,0.491,1.35l0.439,1.367c0.135,0.459,0.235,0.93,0.353,1.393c0.124,0.461,0.207,0.934,0.288,1.406
									c0.073,0.473,0.192,0.936,0.221,1.416l0.128,1.426c0.044,0.473,0.02,0.961,0.022,1.436c0.001,0.478,0,0.95-0.067,1.416
									L164.424,241.698z"/>
							</g>
							<path style="fill:#FFB39C;" d="M159.059,225.605c0,0-7.376-12.07-18.105-12.07c-10.729,0-4.694,36.21,23.469,28.163
								L159.059,225.605z"/>
						</g>
					</g>
				</g>
				<g>
					<g>
						<path style="fill:#042E3D;" d="M194.934,209.511c0,0,0.357,0.483,0.983,1.328c0.628,0.835,1.531,2.012,2.657,3.342
							c1.142,1.307,2.511,2.806,4.157,3.968c0.814,0.588,1.702,1.042,2.587,1.304c0.444,0.108,0.888,0.192,1.324,0.179
							c0.11,0.008,0.219,0.005,0.327-0.011l0.163-0.016l0.082-0.007l0.041-0.003l0.02-0.002l0.01-0.001
							c-0.04,0.007,0.104-0.018-0.087,0.016l0.87-0.188c0.135-0.033,0.314-0.053,0.414-0.094l0.296-0.115
							c0.196-0.085,0.404-0.109,0.598-0.244c0.193-0.115,0.404-0.209,0.593-0.325c0.171-0.138,0.346-0.27,0.525-0.4
							c0.644-0.59,1.13-1.374,1.481-2.259c0.366-0.877,0.539-1.87,0.706-2.807c0.108-0.956,0.196-1.884,0.242-2.756
							c0.027-0.87,0.058-1.68,0.065-2.402c0.008-0.726,0.016-1.359,0.021-1.88c-0.002-1.047,0.029-1.657,0.029-1.657
							s0.228,0.562,0.564,1.565c0.15,0.505,0.361,1.116,0.532,1.833c0.089,0.36,0.183,0.742,0.282,1.146
							c0.075,0.411,0.154,0.842,0.236,1.293c0.076,0.453,0.127,0.934,0.194,1.43c0.053,0.499,0.056,1.024,0.083,1.564
							c-0.029,1.088-0.035,2.265-0.409,3.498c-0.344,1.219-0.964,2.523-2.016,3.56l-0.842,0.709
							c-0.297,0.211-0.622,0.377-0.939,0.559c-0.303,0.195-0.687,0.3-1.038,0.438l-0.54,0.188c-0.18,0.059-0.299,0.072-0.453,0.107
							l-0.873,0.175l-0.115,0.019l-0.017,0.002l-0.035,0.003l-0.07,0.006l-0.14,0.012l-0.28,0.022
							c-0.187,0.02-0.373,0.022-0.559,0.011c-0.751,0.007-1.47-0.174-2.148-0.376c-1.341-0.459-2.467-1.196-3.383-2.007
							c-0.929-0.805-1.668-1.695-2.312-2.554c-0.651-0.855-1.166-1.72-1.607-2.527c-0.888-1.612-1.426-3.037-1.764-4.042
							C195.052,210.109,194.934,209.511,194.934,209.511z"/>
					</g>
					<g>
						<path style="fill:#042E3D;" d="M233.658,205.488c0,0,0.357,0.483,0.983,1.328c0.628,0.835,1.531,2.012,2.657,3.342
							c1.142,1.307,2.511,2.806,4.157,3.968c0.814,0.588,1.702,1.042,2.587,1.304c0.444,0.108,0.888,0.192,1.324,0.179
							c0.11,0.008,0.219,0.005,0.327-0.011l0.163-0.016l0.081-0.007l0.041-0.003l0.02-0.002l0.01-0.001
							c-0.04,0.007,0.104-0.018-0.088,0.016l0.87-0.188c0.135-0.033,0.314-0.053,0.414-0.094l0.296-0.115
							c0.196-0.085,0.404-0.109,0.598-0.244c0.193-0.115,0.404-0.209,0.593-0.325c0.171-0.138,0.346-0.27,0.525-0.4
							c0.644-0.59,1.13-1.374,1.481-2.259c0.366-0.877,0.539-1.87,0.706-2.807c0.108-0.956,0.196-1.885,0.242-2.756
							c0.027-0.87,0.058-1.679,0.065-2.402c0.008-0.726,0.016-1.359,0.021-1.88c-0.002-1.047,0.029-1.657,0.029-1.657
							s0.228,0.562,0.564,1.565c0.151,0.505,0.361,1.116,0.532,1.833c0.089,0.36,0.183,0.742,0.282,1.146
							c0.075,0.411,0.154,0.842,0.236,1.293c0.076,0.453,0.127,0.934,0.194,1.43c0.053,0.499,0.056,1.024,0.083,1.564
							c-0.029,1.088-0.035,2.265-0.409,3.498c-0.344,1.219-0.964,2.523-2.016,3.56l-0.842,0.709
							c-0.297,0.211-0.622,0.377-0.939,0.559c-0.303,0.195-0.687,0.3-1.038,0.438l-0.54,0.188c-0.179,0.059-0.299,0.072-0.453,0.108
							l-0.873,0.175l-0.115,0.019l-0.018,0.002l-0.035,0.003l-0.07,0.006l-0.14,0.012l-0.28,0.022
							c-0.187,0.02-0.373,0.022-0.559,0.011c-0.751,0.007-1.47-0.174-2.148-0.376c-1.341-0.459-2.467-1.196-3.383-2.007
							c-0.929-0.805-1.668-1.695-2.312-2.554c-0.651-0.855-1.166-1.72-1.607-2.527c-0.888-1.612-1.426-3.037-1.764-4.042
							C233.776,206.086,233.658,205.488,233.658,205.488z"/>
					</g>
					<g>
						<path style="fill:#042E3D;" d="M227.623,188.892c0,0,0.09-0.486,0.383-1.283c0.288-0.8,0.786-1.908,1.571-3.148
							c0.786-1.236,1.886-2.591,3.372-3.811c0.756-0.593,1.582-1.184,2.548-1.626c0.951-0.458,2.004-0.819,3.124-0.975
							c0.551-0.105,1.129-0.086,1.691-0.107c0.565,0.045,1.134,0.071,1.674,0.214c0.271,0.063,0.545,0.115,0.808,0.191l0.762,0.285
							c0.514,0.17,0.954,0.45,1.406,0.687c0.438,0.257,0.829,0.552,1.214,0.835c0.368,0.3,0.699,0.615,1.022,0.919
							c0.603,0.641,1.148,1.257,1.544,1.889c0.202,0.314,0.401,0.606,0.574,0.894c0.151,0.3,0.294,0.584,0.429,0.851
							c0.281,0.52,0.471,1.003,0.607,1.407c0.288,0.8,0.404,1.272,0.404,1.272s-0.414-0.283-1.053-0.804
							c-0.309-0.269-0.716-0.563-1.155-0.907c-0.432-0.354-0.94-0.716-1.484-1.093c-0.265-0.198-0.538-0.399-0.842-0.571
							c-0.3-0.175-0.578-0.4-0.9-0.558c-0.32-0.158-0.624-0.357-0.953-0.51c-0.339-0.126-0.654-0.313-0.996-0.427
							c-0.679-0.233-1.364-0.448-2.063-0.514c-0.695-0.09-1.399-0.092-2.109,0.03c-2.858,0.387-5.778,2.407-7.912,3.999
							c-1.083,0.801-1.988,1.529-2.635,2.043C227.998,188.593,227.623,188.892,227.623,188.892z"/>
					</g>
					<g>
						<path style="fill:#042E3D;" d="M216.056,193.418c0,0-0.569-0.324-1.566-0.89c-0.997-0.543-2.41-1.302-4.123-2.066
							c-1.713-0.757-3.717-1.549-5.879-2.036c-0.537-0.139-1.089-0.21-1.639-0.323c-0.556-0.048-1.112-0.151-1.672-0.163
							c-1.121-0.083-2.245-0.016-3.348,0.148c-1.107,0.152-2.179,0.475-3.22,0.862c-0.521,0.191-1.011,0.463-1.523,0.67
							c-0.486,0.275-0.967,0.548-1.439,0.815c-0.46,0.308-0.912,0.611-1.355,0.908c-0.43,0.332-0.85,0.656-1.259,0.972
							c-0.781,0.689-1.57,1.316-2.218,1.993c-0.341,0.327-0.668,0.639-0.979,0.937c-0.299,0.315-0.582,0.614-0.849,0.895
							c-0.536,0.565-1.023,1.055-1.387,1.489c-0.758,0.847-1.24,1.32-1.24,1.32s0.171-0.637,0.555-1.733
							c0.182-0.554,0.435-1.213,0.797-1.937c0.173-0.369,0.358-0.762,0.552-1.176c0.22-0.401,0.473-0.811,0.728-1.248
							c0.495-0.884,1.179-1.754,1.902-2.684c0.401-0.438,0.813-0.888,1.234-1.348c0.45-0.439,0.949-0.85,1.442-1.289
							c0.518-0.411,1.084-0.788,1.649-1.18c0.605-0.335,1.2-0.713,1.856-0.992c1.295-0.595,2.705-1.025,4.148-1.25
							c1.443-0.194,2.913-0.252,4.314-0.052c1.407,0.154,2.748,0.502,3.977,0.96c2.476,0.893,4.502,2.211,6.077,3.47
							c1.567,1.281,2.692,2.52,3.415,3.431C215.73,192.834,216.056,193.418,216.056,193.418z"/>
					</g>
					<g>
						<path style="fill:#D67765;" d="M232.149,213.535c0.572,0.707,1.135,1.396,1.723,2.063c0.565,0.68,1.173,1.321,1.759,1.966
							c0.288,0.327,0.605,0.628,0.91,0.936c0.301,0.312,0.607,0.616,0.924,0.908c0.315,0.293,0.61,0.604,0.941,0.876
							c0.327,0.276,0.633,0.572,0.96,0.842l0.99,0.792c0.326,0.267,0.682,0.489,1.019,0.735c0.332,0.256,0.679,0.484,1.038,0.69
							c0.359,0.204,0.696,0.452,1.062,0.637l1.096,0.557c0.36,0.198,0.751,0.314,1.124,0.477c0.376,0.157,0.753,0.312,1.146,0.408
							l1.167,0.344l2.829,0.833l-2.266,1.609c-1.805,1.282-3.641,2.524-5.533,3.692c-0.955,0.572-1.896,1.163-2.877,1.701
							c-0.967,0.557-1.963,1.075-2.984,1.561c0.739-0.855,1.503-1.678,2.297-2.463c0.779-0.803,1.598-1.554,2.404-2.323
							c1.628-1.515,3.313-2.954,5.028-4.355l0.563,2.441l-1.412-0.338c-0.479-0.093-0.93-0.263-1.378-0.443
							c-0.445-0.183-0.913-0.323-1.338-0.546l-1.271-0.672c-0.425-0.221-0.804-0.51-1.202-0.77c-0.4-0.259-0.784-0.536-1.143-0.842
							c-0.359-0.306-0.737-0.59-1.076-0.914l-1.003-0.981c-0.634-0.683-1.252-1.378-1.795-2.124
							c-0.569-0.727-1.057-1.511-1.526-2.296c-0.227-0.398-0.473-0.781-0.665-1.199c-0.204-0.41-0.409-0.815-0.593-1.233
							C232.702,215.27,232.376,214.417,232.149,213.535z"/>
					</g>
					<g>
						<path style="fill:#D67765;" d="M159.227,239.183c-0.922,0.048-1.849,0.036-2.78-0.057c-0.467-0.042-0.932-0.118-1.404-0.226
							c-0.472-0.116-0.948-0.246-1.446-0.555c-0.24-0.177-0.524-0.384-0.67-0.824c-0.142-0.431-0.017-0.902,0.154-1.186
							c0.17-0.296,0.368-0.513,0.565-0.703c0.199-0.187,0.401-0.355,0.605-0.504c0.407-0.303,0.828-0.551,1.25-0.778
							c0.422-0.235,0.848-0.436,1.275-0.644l-0.552,1.09c-0.189-0.603-0.438-1.239-0.662-1.858
							c-0.232-0.622-0.479-1.238-0.747-1.843c-0.544-1.206-1.114-2.395-1.771-3.514c-0.323-0.565-0.686-1.096-1.053-1.617
							c-0.389-0.5-0.762-1.015-1.189-1.46c-0.42-0.453-0.866-0.872-1.348-1.213c-0.473-0.361-0.988-0.623-1.51-0.834
							c-0.521-0.226-1.075-0.321-1.637-0.359c-0.283-0.009-0.567-0.013-0.855,0.032l-0.216,0.021l-0.054,0.005l-0.014,0.001
							c0.07-0.015,0.01-0.002,0.022-0.005l-0.031,0.006l-0.126,0.026l-0.503,0.1c-0.551,0.124-1.118,0.305-1.526,0.579
							c-0.414,0.275-0.62,0.582-0.675,1.048c-0.068,0.466,0.111,1.065,0.358,1.628c0.26,0.566,0.585,1.141,0.962,1.687
							c0.763,1.089,1.634,2.145,2.575,3.149c-1.178-0.717-2.294-1.554-3.288-2.555c-0.493-0.504-0.978-1.038-1.371-1.671
							c-0.382-0.633-0.763-1.34-0.805-2.251c-0.043-0.447,0.075-0.938,0.271-1.374c0.22-0.422,0.52-0.813,0.862-1.076
							c0.677-0.563,1.415-0.866,2.17-1.118l0.494-0.136l0.124-0.033l0.102-0.024l0.073-0.013l0.291-0.05
							c0.386-0.081,0.783-0.107,1.184-0.118c0.797-0.002,1.616,0.097,2.372,0.363c1.532,0.506,2.791,1.491,3.821,2.556
							c1.047,1.07,1.849,2.296,2.551,3.541c0.71,1.246,1.287,2.542,1.765,3.867c0.244,0.661,0.465,1.327,0.67,1.999
							c0.212,0.675,0.369,1.343,0.526,2.061l0.182,0.832l-0.734,0.258c-0.832,0.293-1.652,0.627-2.38,1.01
							c-0.346,0.188-0.706,0.424-0.853,0.611c-0.079,0.098-0.072,0.102-0.097,0.115c-0.032,0.016,0.051,0.13,0.154,0.241
							c0.243,0.23,0.63,0.438,1.023,0.609c0.398,0.174,0.822,0.315,1.249,0.458C157.441,238.745,158.328,238.98,159.227,239.183z"/>
					</g>
					<g>
						<path style="fill:#D67765;" d="M198.454,245.721c0,0,0.525,0.197,1.445,0.542c0.455,0.168,1.008,0.371,1.643,0.605
							c0.632,0.222,1.346,0.473,2.124,0.747c0.787,0.245,1.618,0.547,2.513,0.816c0.445,0.138,0.902,0.279,1.37,0.424
							c0.476,0.114,0.95,0.264,1.437,0.401c0.962,0.315,1.995,0.477,3.012,0.756c1.03,0.216,2.077,0.427,3.125,0.611l1.576,0.22
							c0.524,0.08,1.045,0.16,1.566,0.177c1.039,0.051,2.065,0.229,3.056,0.172c0.992-0.014,1.963,0.05,2.868-0.068
							c0.905-0.103,1.797-0.073,2.579-0.256c0.79-0.146,1.532-0.252,2.198-0.346c0.646-0.167,1.21-0.313,1.674-0.433
							c0.943-0.235,1.511-0.345,1.511-0.345s-0.447,0.331-1.281,0.868c-0.419,0.264-0.926,0.607-1.536,0.946
							c-0.631,0.279-1.353,0.595-2.158,0.908c-0.793,0.373-1.71,0.542-2.676,0.779c-0.964,0.273-2.003,0.387-3.085,0.475
							c-1.082,0.139-2.199,0.111-3.338,0.081c-0.571,0.001-1.141-0.044-1.709-0.129l-1.713-0.215
							c-1.128-0.214-2.254-0.45-3.34-0.747c-1.076-0.33-2.138-0.651-3.125-1.059c-0.496-0.197-0.989-0.377-1.458-0.584
							c-0.462-0.223-0.913-0.442-1.353-0.654c-0.888-0.399-1.673-0.892-2.409-1.311c-1.454-0.878-2.593-1.715-3.355-2.348
							C198.845,246.134,198.454,245.721,198.454,245.721z"/>
					</g>
					<g>
						<path style="fill:#D67765;" d="M203.483,253.265c0,0,0.299,0.283,0.861,0.721c0.556,0.445,1.387,1.031,2.431,1.642
							c0.508,0.328,1.104,0.602,1.716,0.917c0.638,0.262,1.295,0.573,2.007,0.803c0.355,0.118,0.715,0.237,1.08,0.358
							c0.37,0.103,0.753,0.176,1.132,0.275c0.754,0.222,1.552,0.277,2.337,0.395c0.788,0.104,1.588,0.081,2.37,0.13
							c0.784-0.047,1.556-0.094,2.303-0.139c0.738-0.133,1.456-0.241,2.141-0.345c0.682-0.113,1.303-0.333,1.893-0.476
							c0.584-0.162,1.132-0.282,1.59-0.469c0.467-0.167,0.874-0.313,1.21-0.433c0.68-0.23,1.069-0.362,1.069-0.362
							s-0.354,0.204-0.988,0.54c-0.319,0.167-0.707,0.37-1.151,0.603c-0.437,0.257-0.967,0.455-1.553,0.66
							c-0.587,0.197-1.206,0.475-1.897,0.651c-0.693,0.167-1.426,0.351-2.192,0.509c-0.778,0.074-1.583,0.18-2.404,0.232
							c-0.822-0.037-1.665-0.002-2.497-0.101c-0.828-0.135-1.667-0.208-2.458-0.452c-0.399-0.105-0.798-0.198-1.181-0.326
							c-0.378-0.143-0.75-0.285-1.117-0.424c-0.739-0.262-1.395-0.656-2.029-0.98c-0.608-0.38-1.195-0.713-1.689-1.094
							c-0.517-0.346-0.942-0.729-1.321-1.061c-0.371-0.341-0.685-0.647-0.932-0.909
							C203.715,253.605,203.483,253.265,203.483,253.265z"/>
					</g>
				</g>
			</g>
			<g>
				<g>
					<path style="fill:#FF7E67;" d="M167.811,287.6c0,0,37.215,20.116,55.32-3.018c0,0,16.596-8.046,27.66-3.017
						c11.064,5.029,23.134,44.759,23.134,44.759s37.215,20.619,23.134,47.274l4.023,10.058c0,0-67.39,28.163-103.097,23.134
						c-35.707-5.029-58.338-108.126-58.338-108.126L167.811,287.6z"/>
					<path style="opacity:0.2;fill:#042E3D;" d="M297.06,373.598c7.038-13.322,1.262-25.136-6.278-33.622
						c-4.503,7.264-10.634,13.401-19.096,15.71c-8.755,2.389-18.076,2.341-27.021,1.149c-15.959-2.126-31.637-7.062-46.172-13.963
						c-9.579-4.548-19.819-10.355-27.474-18.27c-6.748,3.95-14.027,6.952-21.526,9.428c9.893,30.355,26.774,69.7,48.494,72.759
						c35.707,5.029,103.097-23.134,103.097-23.134L297.06,373.598z"/>
				</g>
				<g>
					<g>
						<g>
							<path style="fill:#FFB39C;" d="M172.337,300.676c0,0-42.747-34.701-42.747,2.515c0,37.215,41.239,147.353,74.431,154.897
								c20.16,4.582,24.643-23.637,11.064-48.782C201.506,384.159,195.471,348.453,172.337,300.676z"/>
							<path style="opacity:0.5;fill:#D67765;" d="M153.142,361.037c13.778-0.508,29.763-1.778,38.985-12.525
								c-5.105-14.368-11.292-30.285-19.79-47.836c0,0-42.747-34.701-42.747,2.515c0,12.978,5.018,34.824,12.958,58.094
								C146.08,361.215,149.613,361.167,153.142,361.037z"/>
							<path style="opacity:0.5;fill:#D67765;" d="M197.719,408.182c4.44,15.024,12.122,29.73,23.242,40.905
								c3.779-9.657,1.983-25.228-5.876-39.781c-6.261-11.595-10.92-25.439-16.389-41.674
								C195.871,381.085,193.587,394.201,197.719,408.182z"/>
							<path style="fill:#FFB39C;" d="M198.992,420.369c0,0,0-109.132,16.093-116.675c16.093-7.544,58.841,1.509,55.823,3.52
								c-3.018,2.012-26.151,0.503-26.151,0.503s9.555,4.023,1.006,8.549c0,0,3.52,4.526-3.017,6.538c0,0,2.515,3.52-2.515,5.029
								c-5.029,1.509-14.081,1.509-14.081,1.509s32.277,126.306-15.087,129.751C183.402,461.105,198.992,420.369,198.992,420.369z"
								/>
						</g>
						<path style="fill:#FF7E67;" d="M192.957,340.406c-13.975,16.595-62.361,11.064-62.361,11.064S114,283.074,143.672,282.571
							l24.14,5.029C167.811,287.6,201.003,330.851,192.957,340.406z"/>
					</g>
					<g>
						<g>
							<path style="fill:#053F59;" d="M260.119,272.705c0.003-3.447,2.784-6.239,6.211-6.236l21.102,0.017
								c3.428,0.003,6.204,2.799,6.202,6.246l-0.055,69.273c-0.003,3.447-2.784,6.239-6.211,6.236l-21.102-0.017
								c-3.428-0.003-6.204-2.799-6.202-6.246L260.119,272.705z"/>
							<path style="fill:#053F59;" d="M264.464,272.709c0.003-3.447,2.784-6.239,6.211-6.236l21.102,0.017
								c3.428,0.003,6.204,2.799,6.202,6.246l-0.055,69.273c-0.003,3.447-2.784,6.239-6.211,6.236l-21.102-0.017
								c-3.428-0.003-6.204-2.799-6.202-6.246L264.464,272.709z"/>
							<path style="fill:#042E3D;" d="M264.464,272.709c0.003-3.447,2.784-6.239,6.211-6.236l21.102,0.017
								c3.428,0.003,6.204,2.799,6.202,6.246l-0.055,69.273c-0.003,3.447-2.784,6.239-6.211,6.236l-21.102-0.017
								c-3.428-0.003-6.204-2.799-6.202-6.246L264.464,272.709z"/>
						</g>
						<g>
							<path style="fill:#FFB39C;" d="M332.36,373.055l-20.44-53.232c-3.102-25.22-9.519-27.193-9.519-27.193
								c-37.611-23.059-4.173,3.187-4.173,3.187c-47.752-19.152-3.769,3.95-3.769,3.95c-42.364-3.447-0.852,4.847-0.852,4.847
								c-46.714,8.626,2.872,5.63,2.872,5.63c0.757,9.022-0.308,21.34-0.308,21.34c-0.984,15.662-2.811,55.472,6.189,71.472
								C302.36,403.055,347.36,437.055,332.36,373.055z"/>
						</g>
					</g>
				</g>
			</g>
		</g>
	</g>
	<g>
		<g>
			<g>
				<g>
					<path style="fill:#A2D5F2;" d="M627.353,375.174c-10.401,0-14.597-6.077-18.698-12.015
						c-3.779-5.472-7.352-10.643-15.976-10.643c-0.171,0.002-0.35,0.002-0.526,0.002c-7.399,0-12.19-1.85-14.243-5.499
						c-3.148-5.594,1.436-13.135,1.633-13.454l1.555,0.96c-0.043,0.069-4.217,6.951-1.593,11.602
						c1.738,3.082,6.089,4.601,12.99,4.562c0.061,0,0.124-0.001,0.188-0.001c9.581,0,13.593,5.811,17.474,11.432
						c5.857,8.477,11.387,16.479,35.602,6.814l0.677,1.696C638.335,373.866,632.176,375.174,627.353,375.174z"/>
				</g>
				<g>
					<rect x="641.258" y="366.848" style="fill:#FBF4ED;" width="30.034" height="8.14"/>
					<path style="fill:#FAFAFA;" d="M671.293,367.18c0-4.545-6.723-8.229-15.017-8.229c-8.294,0-15.017,3.684-15.017,8.229
						c0,4.545,6.723,8.229,15.017,8.229C664.569,375.409,671.293,371.725,671.293,367.18z"/>
				</g>
			</g>
			<g>
				<rect x="470.067" y="331.185" style="fill:#A2D5F2;" width="91.357" height="33.498"/>
				<rect x="455.651" y="358.592" style="fill:#95C6DB;" width="119.373" height="6.09"/>
				<rect x="413.17" y="364.683" style="fill:#FAFAFA;" width="206.886" height="10.201"/>
			</g>
			<g>
				<path style="fill:#FAFAFA;" d="M636.946,334.535c0,5.045-4.09,9.136-9.136,9.136H403.681c-5.046,0-9.136-4.09-9.136-9.136
					V158.216c0-5.045,4.09-9.136,9.136-9.136h224.129c5.045,0,9.136,4.09,9.136,9.136V334.535z"/>
				<path style="fill:#042E3D;" d="M628.321,299.351c0,4.857-3.938,8.795-8.795,8.795H411.967c-4.858,0-8.796-3.938-8.796-8.795
					v-134.38c0-4.858,3.938-8.796,8.796-8.796h207.558c4.858,0,8.795,3.938,8.795,8.796V299.351z"/>
			</g>
		</g>
		<g>
			<g>
				<g>
					<circle style="fill:#FF7E67;" cx="470.218" cy="120.568" r="66"/>
					<polygon style="fill:#FF7E67;" points="461.234,165.273 474.403,211.073 485.155,164.523 					"/>
				</g>
				<g>
					<path style="fill:#FAFAFA;" d="M476.692,138.79l-20.184-1.62v-24.669c0.58,0.332,1.869,0.685,3.863,1.059
						c1.993,0.374,3.738,0.561,5.233,0.561c3.404,0,6.332-0.892,8.783-2.679c2.449-1.786,3.676-4.131,3.676-7.039
						c0-2.741-0.893-5.046-2.679-6.915c-1.787-1.869-4.341-2.804-7.662-2.804c-3.24,0-5.732,0.978-7.476,2.928
						c-1.744,1.952-2.908,4.342-3.488,7.164l-15.325-6.229c0.415-4.735,2.035-9.075,4.859-13.02
						c2.822-3.944,6.479-7.08,10.964-9.407c4.485-2.324,9.301-3.488,14.453-3.488c5.896,0,11.17,1.538,15.823,4.609
						c4.651,3.075,8.263,7.102,10.839,12.086c2.574,4.984,3.863,10.216,3.863,15.698c0,5.981-1.495,11.048-4.486,15.201
						c-2.99,4.154-6.521,7.207-10.59,9.157c-4.07,1.952-7.643,2.887-10.715,2.804L476.692,138.79z M457.256,166.137
						c-2.492-2.698-3.738-5.875-3.738-9.531c0-3.738,1.35-6.893,4.049-9.469c2.698-2.574,5.835-3.863,9.407-3.863
						c3.321,0,6.167,1.165,8.535,3.489c2.367,2.326,3.551,5.441,3.551,9.344c0,3.906-1.184,7.227-3.551,9.968
						c-2.368,2.741-5.379,4.111-9.033,4.111C462.82,170.186,459.748,168.835,457.256,166.137z"/>
				</g>
			</g>
			<g>
				<path style="fill:#FAFAFA;" d="M661.85,129.571c0,3.752-3.042,6.794-6.794,6.794h-92.403c-3.752,0-6.794-3.042-6.794-6.794
					V72.499c0-3.752,3.042-6.794,6.794-6.794h92.403c3.752,0,6.794,3.042,6.794,6.794V129.571z"/>
				<g>
					<defs>
						<path id="SVGID_1_" d="M661.85,129.571c0,3.752-3.042,6.794-6.794,6.794h-92.403c-3.752,0-6.794-3.042-6.794-6.794V72.499
							c0-3.752,3.042-6.794,6.794-6.794h92.403c3.752,0,6.794,3.042,6.794,6.794V129.571z"/>
					</defs>
					<clipPath id="SVGID_00000057868483490572852290000012128645563080507300_">
						<use xlink:href="#SVGID_1_"  style="overflow:visible;"/>
					</clipPath>
					<polygon style="clip-path:url(#SVGID_00000057868483490572852290000012128645563080507300_);fill:#A2D5F2;" points="
						658.535,141.709 620.561,99.877 658.463,62.074 655.775,58.805 607.802,106.652 561.098,55.204 558.267,58.323 
						596.241,100.154 558.339,137.958 561.026,141.227 599.076,103.277 607.665,112.739 617.589,102.841 655.703,144.828 					"/>
				</g>
				<g>
					
						<ellipse transform="matrix(0.3827 -0.9239 0.9239 0.3827 340.5674 642.8259)" style="fill:#FF7E67;" cx="651.312" cy="66.565" rx="20.383" ry="20.383"/>
					<g>
						<path style="fill:#FFFFFF;" d="M636.381,56.366h4.584l3.196,0.294l-0.042,15.685h-4.794V60.928h-2.944V56.366z"/>
						<path style="fill:#FFFFFF;" d="M645.421,56.366h4.584l3.196,0.294l-0.042,15.685h-4.794V60.928h-2.944V56.366z"/>
						<path style="fill:#FFFFFF;" d="M665.3,65.428c0.484,0.715,0.726,1.528,0.726,2.439c0,0.897-0.239,1.7-0.715,2.407
							c-0.477,0.708-1.15,1.265-2.018,1.671c-0.869,0.407-1.858,0.61-2.965,0.61c-1.15,0-2.19-0.203-3.122-0.61
							c-0.932-0.406-1.668-0.96-2.208-1.661c-0.539-0.701-0.809-1.472-0.809-2.313c0-0.827,0.266-1.612,0.799-2.355
							c0.533-0.743,1.184-1.275,1.956-1.598c-0.813-0.406-1.44-0.907-1.882-1.503c-0.442-0.596-0.662-1.244-0.662-1.945
							c0-0.757,0.259-1.472,0.778-2.145c0.519-0.673,1.212-1.216,2.081-1.629c0.869-0.413,1.808-0.62,2.818-0.62
							s1.938,0.203,2.786,0.61c0.848,0.407,1.517,0.95,2.008,1.63c0.49,0.68,0.736,1.419,0.736,2.218
							c0,0.645-0.172,1.265-0.515,1.861c-0.343,0.596-0.872,1.083-1.587,1.461C664.218,64.222,664.817,64.713,665.3,65.428z
							 M661.516,68.729c0.358-0.224,0.543-0.539,0.557-0.946c0-0.308-0.158-0.613-0.473-0.915c-0.315-0.301-0.817-0.564-1.503-0.788
							c-0.645,0.14-1.111,0.361-1.398,0.662c-0.287,0.302-0.431,0.62-0.431,0.957c0,0.463,0.189,0.806,0.568,1.03
							c0.379,0.225,0.841,0.336,1.388,0.336C660.727,69.065,661.158,68.953,661.516,68.729z M658.846,60.014
							c-0.316,0.231-0.473,0.522-0.473,0.873c0,0.365,0.179,0.666,0.536,0.904c0.357,0.238,0.844,0.42,1.461,0.546
							c0.939-0.364,1.409-0.834,1.409-1.409c0-0.392-0.168-0.701-0.505-0.925c-0.336-0.224-0.743-0.337-1.219-0.337
							C659.564,59.667,659.161,59.782,658.846,60.014z"/>
					</g>
				</g>
			</g>
			<g>
				
					<ellipse transform="matrix(0.9738 -0.2273 0.2273 0.9738 -38.6453 124.5564)" style="fill:#FFFFFF;stroke:#FF7E67;stroke-width:6;stroke-miterlimit:10;" cx="521.366" cy="230.034" rx="24.667" ry="24.667"/>
				<polyline style="fill:none;stroke:#FF7E67;stroke-width:3;stroke-miterlimit:10;" points="521.082,215.007 521.082,230.034 
					531.289,230.034 				"/>
			</g>
			<g>
				<g>
					<rect x="569.12" y="178.881" style="fill:#FF7E67;" width="140.733" height="82"/>
					<path style="fill:#FAFAFA;" d="M641.693,201.055c0,1.017-0.824,1.841-1.841,1.841h-52.466c-1.017,0-1.841-0.824-1.841-1.841
						l0,0c0-1.017,0.824-1.841,1.841-1.841h52.466C640.869,199.214,641.693,200.038,641.693,201.055L641.693,201.055z"/>
					<path style="fill:#FAFAFA;" d="M599.483,211.487h-12.097c-1.017,0-1.841,0.824-1.841,1.841c0,1.017,0.824,1.841,1.841,1.841
						h12.013C599.429,213.941,599.456,212.714,599.483,211.487z"/>
					<path style="fill:#FAFAFA;" d="M639.852,211.487h-29.369c-0.027,1.227-0.054,2.455-0.084,3.682h29.453
						c1.017,0,1.841-0.824,1.841-1.841C641.693,212.311,640.869,211.487,639.852,211.487z"/>
					<path style="fill:#FAFAFA;" d="M639.852,223.76h-8.233v3.682h8.233c1.017,0,1.841-0.824,1.841-1.841
						C641.693,224.584,640.869,223.76,639.852,223.76z"/>
					<path style="fill:#FAFAFA;" d="M620.62,223.76h-33.233c-1.017,0-1.841,0.824-1.841,1.841c0,1.017,0.824,1.841,1.841,1.841
						h33.233V223.76z"/>
					<path style="fill:#FAFAFA;" d="M595.233,236.032h-7.846c-1.017,0-1.841,0.824-1.841,1.841c0,1.017,0.824,1.841,1.841,1.841
						h7.724C595.149,238.487,595.187,237.259,595.233,236.032z"/>
					<path style="fill:#FAFAFA;" d="M639.852,236.032h-33.62c-0.045,1.227-0.083,2.454-0.122,3.682h33.742
						c1.017,0,1.841-0.824,1.841-1.841C641.693,236.857,640.869,236.032,639.852,236.032z"/>
					<path style="fill:#FAFAFA;" d="M693.693,201.055c0,1.017-0.824,1.841-1.841,1.841h-52.466c-1.017,0-1.841-0.824-1.841-1.841
						l0,0c0-1.017,0.824-1.841,1.841-1.841h52.466C692.869,199.214,693.693,200.038,693.693,201.055L693.693,201.055z"/>
					<path style="fill:#FAFAFA;" d="M651.483,211.487h-12.097c-1.017,0-1.841,0.824-1.841,1.841c0,1.017,0.824,1.841,1.841,1.841
						h12.013C651.429,213.941,651.456,212.714,651.483,211.487z"/>
					<path style="fill:#FAFAFA;" d="M691.852,211.487h-29.369c-0.027,1.227-0.054,2.455-0.084,3.682h29.453
						c1.017,0,1.841-0.824,1.841-1.841C693.693,212.311,692.869,211.487,691.852,211.487z"/>
					<path style="fill:#FAFAFA;" d="M691.852,223.76h-8.233v3.682h8.233c1.017,0,1.841-0.824,1.841-1.841
						C693.693,224.584,692.869,223.76,691.852,223.76z"/>
					<path style="fill:#FAFAFA;" d="M672.62,223.76h-33.233c-1.017,0-1.841,0.824-1.841,1.841c0,1.017,0.824,1.841,1.841,1.841
						h33.233V223.76z"/>
					<path style="fill:#FAFAFA;" d="M647.233,236.032h-7.846c-1.017,0-1.841,0.824-1.841,1.841c0,1.017,0.824,1.841,1.841,1.841
						h7.724C647.149,238.487,647.187,237.259,647.233,236.032z"/>
					<path style="fill:#FAFAFA;" d="M691.852,236.032h-33.62c-0.045,1.227-0.083,2.454-0.122,3.682h33.742
						c1.017,0,1.841-0.824,1.841-1.841C693.693,236.857,692.869,236.032,691.852,236.032z"/>
				</g>
				<polygon style="fill:#FF7E67;" points="591.693,257.722 590.36,287.055 603.693,258.388 				"/>
			</g>
			<g>
				<polygon style="fill:#FF7E67;" points="388.634,178.388 383.027,215.604 356.007,195.722 368.752,224.781 339.693,231.408 
					367.223,239.565 353.458,269.133 381.497,248.232 388.125,280.349 401.889,248.232 427.38,271.682 409.536,235.996 
					443.693,237.526 406.987,222.741 437.066,207.447 398.321,215.604 				"/>
				<g>
					<path style="fill:#FAFAFA;" d="M385.721,238.419l-0.841-19.479h8.777l-0.04,18.798L385.721,238.419z M386.563,247.257
						c-0.855-0.895-1.282-1.944-1.282-3.147c0-0.801,0.22-1.543,0.661-2.225c0.441-0.681,1.022-1.216,1.743-1.603
						c0.722-0.387,1.483-0.581,2.285-0.581c1.176,0,2.171,0.387,2.987,1.162c0.815,0.775,1.222,1.817,1.222,3.126
						c0,1.282-0.421,2.372-1.263,3.267c-0.842,0.896-1.891,1.343-3.147,1.343C388.487,248.6,387.418,248.153,386.563,247.257z"/>
				</g>
			</g>
			<g>
				<g>
					<path style="fill:#FAFAFA;" d="M685.353,133.014l-1.169-27.074h12.199l-0.055,26.127L685.353,133.014z M686.523,145.298
						c-1.188-1.244-1.782-2.702-1.782-4.373c0-1.114,0.306-2.145,0.918-3.092c0.613-0.947,1.421-1.69,2.423-2.228
						c1.003-0.538,2.062-0.808,3.176-0.808c1.634,0,3.017,0.538,4.151,1.615c1.132,1.077,1.698,2.526,1.698,4.345
						c0,1.782-0.585,3.296-1.755,4.54c-1.17,1.245-2.628,1.866-4.373,1.866C689.197,147.164,687.711,146.543,686.523,145.298z"/>
				</g>
				<g>
					<path style="fill:#FAFAFA;" d="M705.12,133.014l-1.169-27.074h12.199l-0.055,26.127L705.12,133.014z M706.29,145.298
						c-1.189-1.244-1.782-2.702-1.782-4.373c0-1.114,0.306-2.145,0.918-3.092c0.613-0.947,1.421-1.69,2.423-2.228
						c1.003-0.538,2.062-0.808,3.176-0.808c1.634,0,3.017,0.538,4.151,1.615c1.132,1.077,1.698,2.526,1.698,4.345
						c0,1.782-0.585,3.296-1.755,4.54c-1.17,1.245-2.628,1.866-4.373,1.866C708.964,147.164,707.479,146.543,706.29,145.298z"/>
				</g>
			</g>
			<g>
				<polygon style="fill:#FAFAFA;" points="661.248,276.118 673.599,281.45 661.623,289.956 670.269,293.689 648.161,304.169 
					658.901,295.13 649.554,289.629 				"/>
				<polygon style="fill:#FAFAFA;" points="523.041,30.093 535.876,26.063 532.364,40.326 541.348,37.505 531.454,59.882 
					533.682,46.022 523.011,47.963 				"/>
			</g>
			<g>
				<g>
					<circle style="fill:#FAFAFA;" cx="351.091" cy="115.786" r="38.732"/>
					<polygon style="fill:#FAFAFA;" points="361.833,145.927 368.687,166.055 376.684,142.333 					"/>
				</g>
				<g>
					<path style="fill:#053F59;" d="M327.318,130.86c0-0.885,0.717-1.602,1.602-1.602h45.665c0.885,0,1.602,0.717,1.602,1.602l0,0
						c0,0.885-0.717,1.602-1.602,1.602H328.92C328.035,132.462,327.318,131.745,327.318,130.86L327.318,130.86z"/>
					<path style="fill:#053F59;" d="M364.056,121.78h10.529c0.885,0,1.602-0.717,1.602-1.602c0-0.885-0.717-1.602-1.602-1.602
						h-10.455C364.103,119.644,364.08,120.712,364.056,121.78z"/>
					<path style="fill:#053F59;" d="M328.92,121.78h25.562c0.024-1.068,0.047-2.136,0.073-3.205H328.92
						c-0.885,0-1.602,0.717-1.602,1.602C327.318,121.063,328.035,121.78,328.92,121.78z"/>
					<path style="fill:#053F59;" d="M328.92,111.098h7.166v-3.205h-7.166c-0.885,0-1.602,0.717-1.602,1.602
						C327.318,110.381,328.035,111.098,328.92,111.098z"/>
					<path style="fill:#053F59;" d="M345.66,111.098h28.925c0.885,0,1.602-0.717,1.602-1.602c0-0.885-0.717-1.602-1.602-1.602
						H345.66V111.098z"/>
					<path style="fill:#053F59;" d="M367.756,100.416h6.829c0.885,0,1.602-0.717,1.602-1.602s-0.717-1.602-1.602-1.602h-6.723
						C367.828,98.28,367.795,99.349,367.756,100.416z"/>
					<path style="fill:#053F59;" d="M328.92,100.416h29.262c0.04-1.068,0.073-2.136,0.106-3.204H328.92
						c-0.885,0-1.602,0.717-1.602,1.602S328.035,100.416,328.92,100.416z"/>
				</g>
			</g>
		</g>
	</g>
</g>
</svg>
